<svg width="16" height="16" viewBox="0 0 192 192" fill="none" xmlns="http://www.w3.org/2000/svg">
<rect width="192" height="192" rx="16" fill="#A4C9C9"/>
<rect x="4" y="4" width="184" height="184" rx="12" stroke="#95C0C0" stroke-opacity="0.74" stroke-width="8"/>
<path fill-rule="evenodd" clip-rule="evenodd" d="M51.8573 96C49.52 96 47.6668 98.0014 48.0505 100.307C51.8991 123.43 71.0072 141 93.9999 141C116.993 141 136.101 123.43 139.949 100.307C140.333 98.0014 138.48 96 136.143 96H51.8573Z" fill="#595959"/>
<circle cx="66" cy="60" r="26" fill="white"/>
<circle cx="66" cy="60" r="11.1429" fill="#595959"/>
<path d="M144.428 71.2382C130.124 48.7252 115.303 59.0779 107.473 71.7756C106.391 73.5294 108.528 75.2847 110.314 74.2566C121.987 67.536 132.268 68.9679 141.492 74.0059C143.34 75.0151 145.557 73.0154 144.428 71.2382Z" fill="#595959" stroke="#664E27"/>
<path fill-rule="evenodd" clip-rule="evenodd" d="M120 114C120 112.895 119.105 112 118 112H70C68.8954 112 68 112.895 68 114V137C68 150.255 79.6406 161 94 161C108.359 161 120 150.255 120 137V114Z" fill="#FF717F"/>
<path d="M94.248 144.067C94.2106 144.358 93.7894 144.358 93.752 144.067L89.706 112.532C89.6869 112.382 89.8033 112.25 89.954 112.25H98.046C98.1967 112.25 98.3131 112.382 98.294 112.532L94.248 144.067Z" fill="#E2596C"/>
</svg>
